<svg width="32" height="32" viewBox="0 0 32 32" xmlns="http://www.w3.org/2000/svg">
  <rect width="32" height="32" rx="8" fill="#0d1117"/>
  <path d="M16 6c-5.5 0-10 4.5-10 10 0 4.4 2.9 8.1 6.9 9.4.5.1.7-.2.7-.5v-1.9c-2.8.6-3.4-1.2-3.4-1.2-.5-1.1-1.1-1.4-1.1-1.4-.9-.6.1-.6.1-.6 1 .1 1.6 1 1.6 1 .9 1.6 2.5 1.1 3.1.8.1-.7.4-1.1.7-1.4-2.3-.3-4.6-1.1-4.6-5 0-1.1.4-2 1-2.8-.1-.3-.4-1.3.1-2.7 0 0 .8-.3 2.8 1 .8-.2 1.6-.3 2.4-.3s1.6.1 2.4.3c2-1.3 2.8-1 2.8-1 .5 1.4.2 2.4.1 2.7.6.8 1 1.7 1 2.8 0 3.9-2.4 4.7-4.7 5 .4.3.7.9.7 1.8v2.6c0 .3.2.6.7.5 4-1.3 6.9-5.1 6.9-9.4 0-5.5-4.5-10-10-10z" fill="#f5f6f7"/>
</svg>
