<svg width="32" height="32" viewBox="0 0 32 32" xmlns="http://www.w3.org/2000/svg">
  <defs>
    <linearGradient id="ig" x1="0%" y1="0%" x2="100%" y2="100%">
      <stop offset="0%" stop-color="#f58529"/>
      <stop offset="30%" stop-color="#dd2a7b"/>
      <stop offset="60%" stop-color="#8134af"/>
      <stop offset="100%" stop-color="#515bd4"/>
    </linearGradient>
  </defs>
  <rect width="32" height="32" rx="8" fill="url(#ig)"/>
  <path d="M21 8H11c-1.7 0-3 1.3-3 3v10c0 1.7 1.3 3 3 3h10c1.7 0 3-1.3 3-3V11c0-1.7-1.3-3-3-3zm1 13c0 .6-.4 1-1 1H11c-.6 0-1-.4-1-1V11c0-.6.4-1 1-1h10c.6 0 1 .4 1 1v10zm-6-8.5a4.5 4.5 0 100 9 4.5 4.5 0 000-9zm0 7a2.5 2.5 0 110-5 2.5 2.5 0 010 5zm4.7-7.8a1 1 0 11-2 0 1 1 0 012 0z" fill="#fff"/>
</svg>
